<svg xmlns="http://www.w3.org/2000/svg" xmlns:xlink="http://www.w3.org/1999/xlink" width="500" zoomAndPan="magnify" viewBox="0 0 375 374.999991" height="500" preserveAspectRatio="xMidYMid meet" version="1.0"><defs><g/><clipPath id="2b77e8aefe"><path d="M 37 53 L 314 53 L 314 329 L 37 329 Z M 37 53 " clip-rule="nonzero"/></clipPath><clipPath id="e3651880ef"><path d="M -13.199219 143.203125 L 223.359375 2.363281 L 364.199219 238.917969 L 127.640625 379.757812 Z M -13.199219 143.203125 " clip-rule="nonzero"/></clipPath><clipPath id="9841c1b1b4"><path d="M 105.082031 72.785156 C 39.757812 111.675781 18.332031 196.160156 57.222656 261.480469 C 96.113281 326.804688 180.597656 348.230469 245.917969 309.339844 C 311.242188 270.449219 332.667969 185.964844 293.777344 120.640625 C 254.886719 55.320312 170.402344 33.890625 105.082031 72.785156 Z M 105.082031 72.785156 " clip-rule="nonzero"/></clipPath><clipPath id="3039a5a251"><path d="M 4 14 L 347 14 L 347 233 L 4 233 Z M 4 14 " clip-rule="nonzero"/></clipPath><clipPath id="2feb69e856"><path d="M 48.730469 -24.554688 L 385.054688 64.832031 L 340.359375 232.996094 L 4.035156 143.609375 Z M 48.730469 -24.554688 " clip-rule="nonzero"/></clipPath><clipPath id="2d4e60590c"><path d="M 48.730469 -24.554688 L 385.054688 64.832031 L 340.359375 232.996094 L 4.035156 143.609375 Z M 48.730469 -24.554688 " clip-rule="nonzero"/></clipPath><clipPath id="68449869aa"><path d="M 5 143 L 347 143 L 347 366 L 5 366 Z M 5 143 " clip-rule="nonzero"/></clipPath><clipPath id="51060bc088"><path d="M 388.195312 310.425781 L 53.667969 406.3125 L 5.726562 239.046875 L 340.253906 143.160156 Z M 388.195312 310.425781 " clip-rule="nonzero"/></clipPath><clipPath id="5b1f27786c"><path d="M 388.195312 310.425781 L 53.667969 406.3125 L 5.726562 239.046875 L 340.253906 143.160156 Z M 388.195312 310.425781 " clip-rule="nonzero"/></clipPath></defs><g clip-path="url(#2b77e8aefe)"><g clip-path="url(#e3651880ef)"><g clip-path="url(#9841c1b1b4)"><path fill="#9b0000" d="M -13.199219 143.203125 L 223.359375 2.363281 L 364.199219 238.917969 L 127.640625 379.757812 Z M -13.199219 143.203125 " fill-opacity="1" fill-rule="nonzero"/></g></g></g><g clip-path="url(#3039a5a251)"><g clip-path="url(#2feb69e856)"><g clip-path="url(#2d4e60590c)"><path fill="#9b0000" d="M 99.566406 169.15625 L 3.996094 143.753906 C 28.699219 50.820312 124.105469 -4.523438 217.039062 20.179688 C 309.976562 44.878906 365.316406 140.285156 340.617188 233.21875 L 245.113281 207.839844 C 255.539062 167.800781 231.582031 126.796875 191.53125 116.152344 C 151.480469 105.507812 110.394531 129.226562 99.566406 169.15625 Z M 99.566406 169.15625 " fill-opacity="1" fill-rule="nonzero"/></g></g></g><g clip-path="url(#68449869aa)"><g clip-path="url(#51060bc088)"><g clip-path="url(#5b1f27786c)"><path fill="#9b0000" d="M 245.152344 170.261719 L 340.210938 143.015625 C 366.707031 235.453125 313.222656 331.914062 220.785156 358.410156 C 128.347656 384.90625 31.886719 331.421875 5.390625 238.984375 L 100.382812 211.757812 C 111.980469 251.46875 153.585938 274.367188 193.421875 262.949219 C 233.261719 251.53125 256.351562 210.089844 245.152344 170.261719 Z M 245.152344 170.261719 " fill-opacity="1" fill-rule="nonzero"/></g></g></g><path stroke-linecap="butt" transform="matrix(0.75, 0, 0, 0.75, 3.99781, -84.952787)" fill="none" stroke-linejoin="miter" d="M 171.41439 418.806869 L 171.41439 544.999585 L 93.544593 544.999585 L 93.544593 191.791229 L 225.950851 191.791229 C 245.060228 191.791229 262.815437 196.567271 279.21648 206.119355 C 295.706064 215.588105 308.935232 228.822481 318.914399 245.817274 C 328.9769 262.728734 334.002942 282.468318 334.002942 305.046445 C 334.002942 324.744363 330.367525 342.249572 323.096691 357.551656 C 315.825857 372.770407 306.101898 385.239158 293.930023 394.963117 C 281.836272 404.603743 268.351896 411.327702 253.471687 415.129785 L 354.805027 544.999585 L 256.133145 544.999585 L 171.919598 418.806869 Z M 213.013351 253.046441 L 171.41439 253.046441 L 171.41439 357.426656 L 213.013351 357.426656 C 224.430018 357.426656 235.039394 352.942281 244.846686 343.978739 C 254.737312 334.931863 259.685229 321.952696 259.685229 305.046445 C 259.685229 288.728735 254.737312 275.999568 244.846686 266.869359 C 235.039394 257.655817 224.430018 253.046441 213.013351 253.046441 Z M 213.013351 253.046441 " stroke="#ffffff" stroke-width="7.142878" stroke-opacity="1" stroke-miterlimit="4"/><g fill="#000000" fill-opacity="1"><g transform="translate(50.755619, 323.797186)"><g><path d="M 81.8125 -94.671875 L 81.8125 0 L 23.375 0 L 23.375 -264.9375 L 122.734375 -264.9375 C 137.015625 -264.9375 150.320312 -261.363281 162.65625 -254.21875 C 175 -247.070312 184.9375 -237.132812 192.46875 -224.40625 C 200 -211.6875 203.765625 -196.882812 203.765625 -180 C 203.765625 -165.195312 201.035156 -152.078125 195.578125 -140.640625 C 190.128906 -129.210938 182.859375 -119.863281 173.765625 -112.59375 C 164.671875 -105.320312 154.539062 -100.257812 143.375 -97.40625 L 219.34375 0 L 145.328125 0 L 82.203125 -94.671875 Z M 112.984375 -218.953125 L 81.8125 -218.953125 L 81.8125 -140.65625 L 112.984375 -140.65625 C 121.554688 -140.65625 129.539062 -144.03125 136.9375 -150.78125 C 144.34375 -157.53125 148.046875 -167.269531 148.046875 -180 C 148.046875 -192.207031 144.34375 -201.75 136.9375 -208.625 C 129.539062 -215.507812 121.554688 -218.953125 112.984375 -218.953125 Z M 112.984375 -218.953125 "/></g></g></g></svg>